<svg xmlns="http://www.w3.org/2000/svg" width="256" height="256"><path fill-opacity=".016" fill-rule="evenodd" d="M0 128.004v128.004l128.25-.254 128.25-.254.254-127.75L257.008 0H0zm.485.496c0 70.4.119 99.053.265 63.672s.146-92.98 0-128S.485 58.1.485 128.5"/><path fill-opacity=".119" fill-rule="evenodd" d="M183 51v13h-44.864c-24.674 0-47.077.42-49.783.933-18.106 3.434-32.352 15.975-38.566 33.95-1.969 5.697-2.282 8.564-2.249 20.617.032 12.226.33 14.737 2.347 19.819 2.659 6.698 3.957 7.206 1.502.587-2.456-6.618-2.982-24.711-.968-33.293C55.185 86.298 70.766 71.119 90 68.052c3.768-.601 25.097-1.04 50.75-1.044L185 67V52.5c0-9-.379-14.5-1-14.5-.615 0-1 5-1 13m-67.187 24.47c-12.721 3.503-21.897 10.875-27.402 22.012-10.819 21.892-1.17 49.182 21.089 59.643 8.558 4.022 16.446 4.833 47.25 4.855L184 162v-15.826l-30.75-.357c-29.703-.345-30.928-.437-35.977-2.7-6.351-2.847-12.341-9.11-14.752-15.422-3.793-9.931.062-25.102 7.89-31.051 8.19-6.224 7.423-6.102 41.589-6.644l31.5-.5.292-7.75.292-7.75-31.792.089c-22.636.064-33.142.462-36.479 1.381m5.417 25.916c-1.949 1.063-3.192 2.642-3.215 4.087-.008.534.669-.005 1.506-1.199 1.169-1.669 2.728-2.241 6.75-2.472l5.229-.302-4.27-.528c-2.349-.291-5.049-.104-6 .414M145 101c0 .55.477 1 1.059 1s.781-.45.441-1-.816-1-1.059-1-.441.45-.441 1m37.667-.333c-.367.366-.638 1.604-.604 2.75.059 1.915.141 1.89 1.022-.312.979-2.448.776-3.633-.418-2.438M191.5 105c-1.449 2.859-2.404 5.429-2.123 5.71.281.282 1.658-1.866 3.061-4.772 3.322-6.887 2.495-7.713-.938-.938m10.156-4.25c-.254.412 2.184.77 5.417.794 3.234.025 5.328-.306 4.653-.734-1.573-1-9.462-1.047-10.07-.06m19.844.25-5 .686 5.25.157c2.938.088 5.25-.283 5.25-.843 0-.55-.113-.929-.25-.843s-2.5.466-5.25.843m-70.845 1.829c-.91 1.006-1.655 2.231-1.655 2.722s.684-.083 1.521-1.277c1.155-1.649 2.776-2.259 6.75-2.537l5.229-.367-5.095-.185c-3.831-.139-5.506.269-6.75 1.644m82.113-1.104c1.797.222 4.497.218 6-.01 1.503-.229.032-.411-3.268-.405s-4.529.192-2.732.415M208 106l-4.5.7 4.191.15c2.305.082 4.469-.3 4.809-.85s.479-.932.309-.85-2.334.465-4.809.85m13.762.707c1.244.239 3.044.23 4-.02s-.062-.446-2.262-.435-2.982.216-1.738.455m18.671.238c-.513.502-2.508 1.097-4.433 1.324l-3.5.411 3.5.145c3.442.142 6.958-1.2 5.904-2.254-.295-.296-.957-.127-1.471.374M144 110c0 .55-1.687 1.014-3.75 1.03-3.173.026-3.464.197-1.891 1.111 1.334.775 2.535.772 4.25-.009 2.054-.936 3.38-3.132 1.891-3.132-.275 0-.5.45-.5 1m27.5.923c-3.441.55-3.691.747-1.788 1.413 1.964.688 6.288-.599 6.288-1.871 0-.256-.113-.401-.25-.323s-2.05.429-4.25.781m36.75-.116c-4.953.359-5.798 2.2-1 2.178 2.994-.014 6.818-1.472 5.721-2.181-.259-.167-2.383-.166-4.721.003M123 112c1.977 1.278 8 1.278 8 0 0-.55-2.137-.993-4.75-.985-3.435.011-4.335.284-3.25.985m31 0c1.977 1.278 8 1.278 8 0 0-.55-2.137-.993-4.75-.985-3.435.011-4.335.284-3.25.985m66 0c0 .55 1.575 1 3.5 1s3.5-.45 3.5-1-1.575-1-3.5-1-3.5.45-3.5 1m-84 9.694c-4.125 1.474-5.466 8.669-2.171 11.651 2.435 2.204 11.171 2.325 11.171.155 0-1.109-1.163-1.5-4.465-1.5-3.391 0-4.714-.465-5.5-1.934-1.339-2.502-1.323-2.635.536-4.495.896-.895 3.262-1.571 5.5-1.571 2.826 0 3.929-.421 3.929-1.5 0-1.081-1.048-1.478-3.75-1.421-2.062.043-4.425.32-5.25.615m14.009.596c-1.37.693-2.644 2.149-2.83 3.235-.307 1.795-.189 1.77 1.298-.275 1.292-1.776 2.625-2.253 6.33-2.265 3.399-.011 4.279-.283 3.193-.985-2.05-1.325-5.013-1.217-7.991.29m16.45-.223c-.363.586-.445 1.281-.183 1.543s.743-.218 1.069-1.067c.676-1.762.1-2.072-.886-.476m10.768.183c-1.268 1.556-4.367 8.943-3.935 9.376.175.175 1.526-2.144 3.003-5.154 2.645-5.394 2.927-6.672.932-4.222m7.273-.25c-.387.627 1.736.994 5.691.985 4.442-.011 5.865-.302 4.809-.985-1.976-1.277-9.711-1.277-10.5 0m21.324.75c-2.412 2.841-7.044 11.363-6.482 11.925.285.286 1.509-1.437 2.719-3.828s3.072-5.584 4.138-7.097c2.161-3.068 1.922-3.705-.375-1M216.5 122c-.34.55-.141 1 .441 1s1.059-.45 1.059-1-.198-1-.441-1-.719.45-1.059 1m14.5.059c0 .582.45.781 1 .441s1-.816 1-1.059-.45-.441-1-.441-1 .477-1 1.059m10.381.191c-.405.688-1.429 2.375-2.275 3.75-1.149 1.866-.723 1.649 1.678-.856 1.769-1.845 3.216-3.533 3.216-3.75 0-.924-1.944-.289-2.619.856m-76.302 5.333c.048 1.165.285 1.402.604.605.289-.722.253-1.585-.079-1.917s-.568.258-.525 1.312m30.371.346c-.522.51-2.525 1.113-4.45 1.34l-3.5.411 3.628.16c2.173.096 4.126-.441 4.872-1.34 1.364-1.644.968-2.055-.55-.571m-35.795 2.528c-.405 1.054-1.948 1.548-4.874 1.558-3.132.012-3.879.276-2.781.985.825.533 2.238.976 3.139.985 1.99.018 6.612-3.561 5.735-4.442-.345-.346-.893.065-1.219.914m45.345-.551c0 .499.9.671 2 .384s2-.696 2-.907c0-.21-.9-.383-2-.383s-2 .408-2 .906M164.158 132c0 1.375.227 1.938.504 1.25.278-.687.278-1.812 0-2.5-.277-.687-.504-.125-.504 1.25M34 166.474c0 1.809 9.321 13.618 14.443 18.3 11.17 10.208 24.464 16.274 39.913 18.211 4.45.558 28.016 1.015 52.368 1.015H185v-15c0-9.333-.378-15-1-15-.617 0-1 5.167-1 13.5V201h-43.276c-23.802 0-46.974-.464-51.493-1.03-21.242-2.664-37.045-11.566-49.323-27.785-2.7-3.566-4.908-6.136-4.908-5.711"/><path fill-opacity=".593" fill-rule="evenodd" d="M183.779 51.25 183.5 64.5l-49.5.508c-53.802.552-52.166.383-62.567 6.478-5.96 3.493-14.796 13.471-18.366 20.741-5.254 10.7-7.41 26.483-5.092 37.273.652 3.039.742 2.198.373-3.5-1.779-27.464 13.673-51.342 37.187-57.467C90.417 67.261 99.399 67 138.21 67H185V52.5c0-7.975-.212-14.5-.471-14.5s-.597 5.962-.75 13.25M119.5 75.015c-18.92 3.832-31.771 17.028-34.661 35.594-1.236 7.933.149 17.409 3.678 25.172 2.966 6.524 11.874 16.026 18.309 19.528 9.449 5.142 13.973 5.691 46.928 5.691h30.334l-.294-7.25-.294-7.25-31-.5c-34.879-.563-36.265-.832-43.967-8.533-10.86-10.861-10.52-29.922.714-40.071 8.482-7.663 9.525-7.858 44.045-8.211l30.793-.316-.293-7.184-.292-7.185-30-.148c-16.5-.081-31.8.217-34 .663m14.155 48.814c-2.245 2.48-2.085 6.741.345 9.171 2.13 2.13 11 2.937 11 1 0-.55-1.935-1-4.3-1-4.744 0-6.7-1.314-6.7-4.5s1.956-4.5 6.7-4.5c2.365 0 4.3-.45 4.3-1 0-1.859-9.544-1.162-11.345.829m-84.576 11.754c.048 1.165.285 1.402.604.605.289-.722.253-1.585-.079-1.917s-.568.258-.525 1.312M184 188.058v13.059l-50.75-.378c-55.661-.415-55.662-.415-68.58-6.824-7.807-3.874-11.074-6.186-18.107-12.817-4.49-4.234-5.117-4.627-2.573-1.612 7.616 9.026 19.083 16.541 31.51 20.653 6.893 2.281 7.783 2.321 58.25 2.639l51.25.323V189.05c0-7.727-.225-14.05-.5-14.05s-.5 5.876-.5 13.058"/><path fill-opacity=".378" fill-rule="evenodd" d="M83.919 66.833c-8.481 2.214-16.997 7.366-22.59 13.667-4.781 5.386-10.758 16.832-11.75 22.5-.414 2.368.152 1.504 1.751-2.673 4.515-11.796 14.189-23.494 23.243-28.106 10.754-5.478 11.524-5.555 62.427-6.203l47.5-.606-47-.148c-41.521-.131-47.767.052-53.581 1.569m38.032 8.228c-17.399 2.561-29.7 12.413-34.993 28.022-1.819 5.365-2.102 7.993-1.726 16.029.376 8.025.947 10.667 3.457 16 6.022 12.798 17.018 21.447 31.041 24.419 4.953 1.049 14.352 1.439 35.02 1.452L183 161v-15h-29.822c-33.356 0-35.743-.368-43.068-6.638-2.268-1.942-5.356-5.63-6.863-8.196-2.404-4.096-2.738-5.704-2.738-13.166.001-6.899.425-9.295 2.253-12.723 3.054-5.729 8.614-11.095 14.149-13.654 4.31-1.994 6.458-2.141 35.339-2.426l30.75-.304V74l-27.75.122c-15.262.067-30.247.49-33.299.939M48.195 109.5c.02 1.65.244 2.204.498 1.231s.237-2.323-.037-3-.481.119-.461 1.769m-.963 9.5c0 1.925.206 2.713.457 1.75.252-.963.252-2.537 0-3.5-.251-.963-.457-.175-.457 1.75m87.514 4.25c-.9.688-1.929 2.465-2.287 3.95-.917 3.804 3.149 7.8 7.937 7.8 1.917 0 3.764-.45 4.104-1 .377-.609-1.115-1-3.819-1-5.127 0-6.971-1.613-6.503-5.69.293-2.56.722-2.838 4.822-3.123 2.475-.172 4.928-.735 5.45-1.25 1.465-1.445-7.794-1.146-9.704.313M60 192.536c0 .97 10.307 5.555 17.161 7.633 7.083 2.147 9.077 2.237 57.089 2.587 34.586.252 49.75.04 49.75-.697 0-.731-15.107-1.064-48.75-1.076-53.448-.019-56.964-.321-68.912-5.912-3.486-1.631-6.338-2.772-6.338-2.535"/></svg>