<svg xmlns="http://www.w3.org/2000/svg" width="256" height="256"><path fill="#1976D2" fill-opacity=".016" fill-rule="evenodd" d="M0 128.004v128.004l128.25-.254 128.25-.254.254-127.75L257.008 0H0zm.485.496c0 70.4.119 99.053.265 63.672s.146-92.98 0-128S.485 58.1.485 128.5"/><path fill="#1976D2" fill-opacity=".247" fill-rule="evenodd" d="M78.5 37.482C59.013 41.779 43.441 52.878 32.711 70.12c-15.351 24.666-16.41 61.733-2.553 89.353 11.041 22.009 27.15 35.825 48.706 41.775 7.179 1.981 10.583 2.132 56.886 2.511l49.25.404-.015-14.832c-.009-8.157-.358-15.37-.776-16.028-.569-.894-13.118-1.28-49.735-1.529-47.331-.321-49.166-.405-54.707-2.493-14.534-5.479-25.331-17.45-29.347-32.537-1.858-6.978-1.81-23.825.088-31.113 4.348-16.694 16.103-30.198 31.259-35.912 5.539-2.088 7.381-2.172 54.483-2.492l48.75-.332V53.029c0-7.626-.273-14.577-.607-15.447-.543-1.415-5.858-1.574-50.25-1.503-37.236.06-51.142.411-55.643 1.403m37.765 38.06c-27.899 7.513-39.989 35.527-26.93 62.403 7.057 14.524 20.246 24.043 36.165 26.102 4.4.569 19.7.904 34 .744l26-.291.3-6.327c.171-3.605-.245-7.557-.966-9.186l-1.266-2.86-30.534-.313c-29.399-.302-30.72-.399-35.534-2.613-2.75-1.265-6.68-3.937-8.734-5.938-11.44-11.145-6.506-33.794 9.028-41.445 4.542-2.237 5.804-2.335 36.206-2.818l31.5-.5.3-6.327c.173-3.668-.244-7.556-.994-9.25L183.512 74l-31.006.066c-23.366.049-32.296.413-36.241 1.476m3.39 27.287c-2.252 2.488-2.08 6.765.413 10.267 1.811 2.543 2.69 2.904 7.073 2.904 4.227 0 4.954-.272 4.674-1.75-.236-1.247-1.476-1.843-4.311-2.075-3.89-.317-6.504-1.613-6.504-3.226 0-2.02 3.455-3.949 7.071-3.949 3.262 0 3.929-.339 3.929-2 0-1.751-.667-2-5.345-2-3.908 0-5.79.492-7 1.829M133 105.865c0 6.683 2.725 10.135 8.001 10.135 2.172 0 4.542-.686 5.428-1.571 2.418-2.419 1.979-13.429-.536-13.429-.491 0-.893 1.97-.893 4.378 0 4.897-1.654 6.951-5.195 6.449-1.744-.247-2.372-1.058-2.579-3.327-.499-5.458-1.247-7.5-2.745-7.5-1.105 0-1.481 1.235-1.481 4.865m17.557-2.642c-2.128 3.037-1.953 6.412.511 9.873 1.804 2.533 2.698 2.904 7 2.904 4.265 0 4.932-.27 4.932-2 0-1.695-.667-2-4.378-2-5.586 0-7.735-2.112-5.105-5.019q1.793-1.98 5.638-1.981c3.178 0 3.845-.347 3.845-2 0-1.755-.667-2-5.443-2-4.492 0-5.716.389-7 2.223m13.447 2.027c.002 2.471.833 5.611 1.985 7.5 1.752 2.873 2.492 3.25 6.374 3.25 5.725 0 6.814-1.453 6.439-8.587-.374-7.117-2.802-8.953-2.802-2.119 0 4.984-1.633 7.038-5.195 6.533-1.744-.247-2.372-1.058-2.579-3.327-.499-5.458-1.247-7.5-2.745-7.5-1.076 0-1.48 1.162-1.477 4.25m18.491-3c-1.294 3.656-2.4 10.833-1.879 12.191.909 2.37 3.382 1.867 3.399-.691.03-4.346 1.472-4.858 3.432-1.219 2.393 4.445 3.973 4.386 5.808-.214l1.469-3.683 1.216 3.683c1.567 4.75 4.285 5.098 3.379.433-1.254-6.461-2.887-11.106-4.038-11.49-.647-.215-2.228 1.678-3.513 4.207l-2.337 4.599-2.203-4.533c-2.187-4.502-3.885-5.679-4.733-3.283M201 106.918c0 8.735.267 9.082 6.985 9.082 3.416 0 6.178-.51 6.77-1.25 1.394-1.742.919-10.232-.679-12.159-.934-1.124-3.044-1.591-7.198-1.591H201zm16.206 1.332.294 7.25 5.878.304c5.099.263 5.794.087 5.25-1.332-.346-.9-.628-1.824-.628-2.054s-1.8-.418-4-.418c-2.956 0-4-.407-4-1.559 0-1.003.446-1.277 1.25-.767 1.93 1.222 6.752 1.174 6.735-.067-.031-2.248-1.591-3.455-4.994-3.866-2.982-.359-2.798-.444 1.259-.581L229 105v4.3c0 3.991 1.294 6.7 3.2 6.7.44 0 .8-1.047.8-2.327 0-2.006.405-2.267 2.94-1.895 1.617.237 3.711 1.284 4.655 2.327 2.46 2.718 4.835 2.568 3.348-.212-.816-1.524-.826-2.41-.036-3.2 1.557-1.557 1.351-4.88-.464-7.47-1.331-1.901-2.478-2.223-7.916-2.223-4.153 0-6.535.434-6.865 1.25-.403 1-.52 1-.583 0-.053-.84-1.897-1.25-5.623-1.25h-5.544zm-11.456-2.544c1.238.238 3.262.238 4.5 0 1.238-.239.225-.434-2.25-.434s-3.488.195-2.25.434m27.25.854c0 1.187.879 1.486 3.673 1.25 5.275-.445 5.621-2.81.41-2.81-3.033 0-4.083.401-4.083 1.56m-28.756 3.69c.225.688 1.95 1.313 3.833 1.391 2.647.109 2.8.037.673-.317-1.512-.251-2.75-.877-2.75-1.39 0-.514-.488-.934-1.083-.934-.596 0-.899.563-.673 1.25m-70.589 13.579c-2.269 2.507-2.077 7.365.418 10.536 1.748 2.223 2.859 2.635 7.107 2.635 4.179 0 4.931-.268 4.427-1.582-.334-.87-.607-1.77-.607-2s-1.71-.418-3.8-.418c-3.504 0-6.2-1.36-6.2-3.129 0-1.975 3.516-3.871 7.178-3.871 3.269 0 3.921-.3 3.429-1.582-.334-.87-.607-1.77-.607-2s-2.18-.418-4.845-.418c-3.424 0-5.33.536-6.5 1.829m15.658-1.043c-3.43 2.18-3.231 8.437.395 12.443 2.061 2.279 9.515 2.405 11.721.2 2.016-2.017 2.025-8.336.014-11.206-1.236-1.765-2.523-2.22-6.25-2.208-2.581.009-5.227.355-5.88.771m15.443 5.464c-1.168 5.15-1.187 6.504-.11 7.69 1.692 1.866 2.515.954 3.315-3.679l.649-3.761 2.216 4.25c1.218 2.338 2.663 4.25 3.211 4.25.547 0 1.75-1.583 2.673-3.518l1.677-3.518 1.057 3.256c.581 1.791 1.815 3.401 2.742 3.579 1.442.276 1.56-.156.814-2.988a2979 2979 0 0 1-1.975-7.561c-1.38-5.323-3.2-5.405-5.525-.25-.992 2.2-2.117 4-2.5 4s-1.404-1.8-2.268-4c-2.323-5.913-4.293-5.171-5.976 2.25m19.244.05c0 5.783 1.073 8.7 3.2 8.7.44 0 .8-1.024.8-2.276 0-2.055.392-2.239 4.019-1.894 6.461.617 9.03-3.46 5.424-8.607-1.311-1.873-2.492-2.223-7.5-2.223H184zm20.76-4.05c-2.939 4.497-5.472 10.279-5.038 11.5.738 2.075 3.249 1.407 4.427-1.177.911-1.999 1.505-2.275 3.375-1.564 1.249.475 2.51.623 2.804.33.293-.294 1.123.41 1.843 1.564 1.195 1.913 3.829 2.94 3.829 1.493 0-1.804-7.443-14.396-8.509-14.396-.693 0-1.923 1.013-2.731 2.25M216 128.3c0 5.783 1.073 8.7 3.2 8.7.44 0 .8-1.894.8-4.208v-4.208l4.288 4.208c2.358 2.314 4.608 4.208 5 4.208.866 0 .954-11.205.105-13.418-1.244-3.243-3.393-1.71-3.393 2.421v4.003l-3.616-4.003c-5.202-5.758-6.384-5.332-6.384 2.297m15-5.494c0 .443 1.125 2.33 2.5 4.194s2.5 4.336 2.5 5.494c0 2.111 1.701 4.506 3.2 4.506.44 0 .8-.931.8-2.07s1.372-4.063 3.048-6.5c1.676-2.436 2.55-4.43 1.941-4.43s-.829-.45-.489-1-.232-1-1.272-1-2.492 1.125-3.228 2.5-1.66 2.5-2.054 2.5-1.453-1.125-2.354-2.5c-1.537-2.346-4.592-3.473-4.592-1.694m-79.25 4.274c-2.599 1.514-2.201 4.769.671 5.49 4.83 1.212 8.637-1.371 7.27-4.934-.708-1.844-5.19-2.158-7.941-.556m36.25.48c0 1.187.879 1.486 3.673 1.25 5.275-.445 5.621-2.81.41-2.81-3.033 0-4.083.401-4.083 1.56"/><path fill="#1976D2" fill-opacity=".725" fill-rule="evenodd" d="M82.831 37.023c-15.83 2.671-27.37 8.516-38.427 19.462C27.092 73.624 20.109 93.273 21.301 121.5c.553 13.108 1.96 20.412 5.874 30.5 7.051 18.174 21.937 35.5 36.825 42.86 15.55 7.689 13.525 7.461 70.25 7.881l50.75.376v-13.624c0-7.494-.466-14.495-1.035-15.559-1.001-1.87-2.6-1.934-48.25-1.946-36.232-.009-48.378-.323-52.215-1.349-17.402-4.656-30.218-18.38-34.051-36.465-5.846-27.584 6.871-54.269 30.687-64.394C85.417 67.535 86.263 67.492 135 67l49.5-.5.299-12c.164-6.6.031-13.462-.295-15.25l-.595-3.25-48.204.118c-26.513.064-50.306.472-52.874.905M120 75.142c-13.216 2.184-25.563 11.162-31.259 22.732-3.11 6.318-3.241 7.07-3.241 18.605V128.5l4.205 8.753c4.974 10.352 11.332 17.229 19.92 21.544 9.315 4.681 13.92 5.203 45.924 5.203H185v-7.5c0-4.333-.422-7.5-1-7.5-.55 0-1-.651-1-1.447 0-1.226-4.784-1.494-31.25-1.75l-31.25-.303-5.09-2.686c-9.203-4.856-13.399-11.687-13.399-21.814 0-12.934 8.16-23.619 20.921-27.393 4.427-1.31 10.664-1.607 33.75-1.607H185v-7.5c0-4.333-.422-7.5-1-7.5-.55 0-1-.675-1-1.5 0-1.301-3.809-1.485-28.75-1.383-15.812.064-31.225.526-34.25 1.025m.828 26.894c-2.554 1.491-3.302 6.591-1.393 9.505 1.354 2.067 2.405 2.459 6.588 2.459 2.737 0 4.977-.45 4.977-1s-2.04-1-4.532-1c-3.775 0-4.678-.376-5.405-2.25-1.387-3.577.929-6.195 5.802-6.557 2.274-.17 4.135-.732 4.135-1.25 0-1.236-8.02-1.162-10.172.093M134 106.1c0 6.578 1.088 7.9 6.5 7.9 5.381 0 6.5-1.325 6.5-7.7 0-6.865-1.803-6.906-2.198-.05l-.302 5.25h-8l-.313-4.5c-.47-6.748-2.187-7.455-2.187-.9m17.637-3.594c-2.373 2.372-2.873 5.229-1.441 8.228 1.16 2.428 1.96 2.803 6.562 3.068 3.021.174 5.242-.12 5.242-.695 0-.549-2.137-1.135-4.75-1.302-4.377-.281-4.775-.526-5.072-3.115-.45-3.919 1.401-5.69 5.944-5.69 2.133 0 3.878-.45 3.878-1 0-1.605-8.676-1.182-10.363.506M165 106.3c0 6.375 1.119 7.7 6.5 7.7s6.5-1.325 6.5-7.7c0-6.865-1.803-6.906-2.198-.05l-.302 5.25h-8l-.302-5.25c-.395-6.856-2.198-6.815-2.198.05m17.964-4.55c-.019.412-.654 3.338-1.409 6.5-1.107 4.629-1.125 5.75-.093 5.75.729 0 1.593-1.834 2.001-4.25l.719-4.25 2.106 4.25c1.158 2.338 2.604 4.25 3.212 4.25s2.054-1.912 3.212-4.25l2.106-4.25.719 4.25c.443 2.619 1.253 4.25 2.11 4.25 1.001 0 1.217-.771.772-2.75-1.743-7.738-2.579-10.25-3.411-10.25-.503 0-1.825 2.058-2.938 4.574-1.112 2.515-2.405 4.337-2.873 4.048-.467-.289-1.671-2.347-2.675-4.574-1.632-3.619-3.462-5.315-3.558-3.298M201 107.5v6.5h5.878c6.82 0 7.933-.912 7.933-6.5s-1.113-6.5-7.933-6.5H201zm16 0v6.5h5.5c3.025 0 5.5-.45 5.5-1s-2.051-1-4.557-1h-4.558l.308-4.25c.306-4.229.328-4.251 4.557-4.557 6.198-.449 5.204-2.193-1.25-2.193H217zm13 0c0 3.667.436 6.5 1 6.5.55 0 1-2.475 1-5.5V103h3.878c3.936 0 6.838 2.032 5.649 3.956-.355.574-2.418 1.044-4.586 1.044-4.582 0-5.132 1.335-1.191 2.888 1.512.596 3.516 1.636 4.452 2.312 2.091 1.51 3.515.369 1.928-1.543-.889-1.071-.807-1.681.358-2.647.831-.69 1.512-2.068 1.512-3.061 0-3.325-2.813-4.949-8.571-4.949H230zm-26.192-2.304c-.19 1.267-.168 3.34.049 4.605.349 2.028.886 2.266 4.519 2 4.972-.363 5.072-2.177.145-2.611-4.661-.411-4.51-1.987.229-2.38 5.443-.45 5.119-3.21-.423-3.614-3.699-.269-4.213-.041-4.519 2m16.886 1.443c-1.21 1.211.43 2.361 3.365 2.361 1.948 0 2.941-.507 2.941-1.5 0-1.512-4.975-2.191-6.306-.861m-86.057 16.867c-2.373 2.372-2.873 5.229-1.441 8.228 1.16 2.428 1.96 2.803 6.562 3.068 3.193.184 5.242-.109 5.242-.75 0-.579-2.007-1.052-4.465-1.052-4.326 0-6.535-1.644-6.535-4.863 0-2.194 3.321-4.137 7.071-4.137 2.161 0 3.929-.45 3.929-1 0-1.605-8.676-1.182-10.363.506M149 124c-2.499 2.499-2.584 7.161-.171 9.345 2.63 2.38 9.645 2.181 12.171-.345 2.555-2.555 2.534-5.052-.073-8.365-2.644-3.362-8.869-3.693-11.927-.635m17.495-.75c-1.045 2.952-2.524 11.055-2.096 11.483 1.103 1.103 2.601-1.081 2.601-3.792 0-3.988 1.781-3.708 3.564.559.805 1.925 1.898 3.5 2.429 3.5.532 0 1.966-1.912 3.188-4.25l2.222-4.25.94 4.25c.518 2.338 1.51 4.25 2.204 4.25.992 0 .944-1.236-.222-5.75-.817-3.162-1.874-6.152-2.349-6.643-.494-.512-1.826 1.089-3.119 3.75-1.24 2.553-2.503 4.641-2.806 4.639s-1.383-2.027-2.4-4.5c-1.841-4.476-3.314-5.626-4.156-3.246M185 128.5c0 3.667.436 6.5 1 6.5.55 0 1-2.501 1-5.557v-5.558l4.25.308c3.533.255 4.304.687 4.57 2.557.287 2.023-.099 2.25-3.834 2.25-2.877 0-4.025.384-3.736 1.25.602 1.808 3.469 2.109 6.829.717 2.2-.911 2.921-1.871 2.921-3.888 0-3.919-1.759-5.079-7.7-5.079H185zm17.81.01c-2.43 4.274-3.231 6.49-2.345 6.49.74 0 2.564-2.081 4.055-4.624 1.995-3.405 2.932-4.263 3.554-3.257.586.95.177 1.614-1.341 2.175-1.809.67-1.931.969-.709 1.742.812.513 2.278.94 3.257.949.98.008 2.041.69 2.357 1.515s1.228 1.5 2.024 1.5c1.064 0 .572-1.641-1.857-6.191-1.818-3.404-3.755-6.325-4.305-6.49-.55-.164-2.66 2.622-4.69 6.191m14.19-.222c0 3.808.433 6.712 1 6.712.55 0 1.011-1.912 1.025-4.25l.025-4.25 4.011 4.25c2.206 2.338 4.445 4.25 4.975 4.25s.964-2.925.964-6.5c0-3.667-.436-6.5-1-6.5-.55 0-1 2.121-1 4.712v4.713l-5-4.925-5-4.925zm14.589-5.038c.388.688 1.765 2.682 3.059 4.433 1.293 1.751 2.352 4.114 2.352 5.25s.45 2.067 1 2.067 1-.924 1-2.053 1.125-3.709 2.5-5.732c2.677-3.94 3.058-5.215 1.557-5.215-.519 0-1.741 1.35-2.716 3s-2.1 3-2.5 3-1.525-1.35-2.5-3c-1.659-2.809-5.315-4.514-3.752-1.75m-81.018 2.321c-3.691 3.692-.894 7.743 5.001 7.244 2.789-.237 3.919-.88 4.546-2.589 1.705-4.643-5.866-8.335-9.547-4.655"/><path fill="#1976D2" fill-opacity=".962" fill-rule="evenodd" d="M85.81 37.043c-33.538 3.911-57.988 28.709-63.457 64.361-6.292 41.011 13.165 80.976 45.898 94.276 12.106 4.919 17.255 5.32 68.337 5.32H184v-12.418c0-6.83-.273-13.13-.607-14-.541-1.409-5.424-1.583-44.75-1.59-24.839-.004-46.985-.45-50.643-1.021-20.019-3.121-35.392-18.835-39.516-40.392-1.894-9.896-1.872-15.768.094-25.371 3.686-18.011 14.49-31.597 30.558-38.428C84.417 65.535 85.263 65.492 134 65l49.5-.5.29-12c.159-6.6.038-13.013-.269-14.25l-.559-2.25-45.231.131c-24.877.073-48.241.483-51.921.912m97.857 40.624c-.367.366-.667 3.042-.667 5.946v5.279l-30.25.304c-29.328.295-30.409.376-35.477 2.667-5.752 2.601-12.417 9.153-14.583 14.336-2.02 4.835-2.915 12.134-2.024 16.504.707 3.466.832 3.125 1.43-3.903.98-11.51 5.637-18.4 16.288-24.098 3.95-2.113 5.375-2.214 35.366-2.505l31.25-.302v-7.448c0-7.479-.104-8.009-1.333-6.78M122 102.288c-3.121 1.571-4.002 7.567-1.482 10.088 1.793 1.793 10.482 2.31 10.482.624 0-.55-1.935-1-4.3-1-4.744 0-6.7-1.314-6.7-4.5s1.956-4.5 6.7-4.5c2.365 0 4.3-.45 4.3-1 0-1.41-6.009-1.218-9 .288m12.175 3.391c-.203 6.018 1.428 8.321 5.896 8.321 4.449 0 6.929-3.114 6.929-8.7 0-5.939-1.75-4.578-2.187 1.7-.304 4.373-.414 4.508-3.899 4.801-4.423.37-5.658-.995-6.171-6.821l-.394-4.48zM153 102.288c-3.177 1.598-3.956 6.998-1.415 9.806C153.436 114.14 162 114.885 162 113c0-.55-1.935-1-4.3-1-4.744 0-6.7-1.314-6.7-4.5s1.956-4.5 6.7-4.5c2.365 0 4.3-.45 4.3-1 0-1.41-6.009-1.218-9 .288m12.134 3.391c-.156 6.015 1.49 8.321 5.937 8.321 4.403 0 6.929-3.121 6.929-8.559 0-2.507-.375-4.327-.833-4.044-.459.283-.64 1.833-.404 3.444.668 4.552-1.239 7.159-5.239 7.159-3.991 0-4.75-.947-5.614-7l-.643-4.5zM183.246 103c-.547 1.375-1.26 4.525-1.584 7-.573 4.386-.561 4.411.481 1a606 606 0 0 1 1.547-5c.306-.959 1.355.212 2.913 3.25 1.339 2.612 2.643 4.75 2.897 4.75s1.554-2.138 2.888-4.75l2.427-4.75.685 3c1.24 5.423 1.676 6.657 2.179 6.155.832-.833-1.754-11.655-2.785-11.655-.531 0-1.86 2.089-2.955 4.642-1.094 2.552-2.259 4.372-2.588 4.043s-1.613-2.756-2.854-5.392c-2.206-4.689-2.277-4.739-3.251-2.293M202 107.5v6.5h4.929c5.715 0 8.659-2.034 7.116-4.916-.644-1.203-.562-2.173.252-3.002 2.013-2.048-2.708-5.082-7.908-5.082H202zm16 0v6.5h4.5c2.475 0 4.5-.45 4.5-1s-1.8-1-4-1h-4v-9h4c2.2 0 4-.45 4-1s-2.025-1-4.5-1H218zm12-.124c0 4.054.417 6.624 1.074 6.624.665 0 .968-2.002.796-5.25l-.279-5.25h4.941c4.041 0 5.007.342 5.303 1.88.44 2.289-1.343 3.539-5.335 3.741-2.2.111-2.428.263-.854.571 1.18.231 2.937 1.295 3.905 2.364 2.255 2.493 3.829 2.526 2.282.048-.957-1.533-.863-2.217.491-3.571 2.027-2.027 2.066-2.618.326-4.997-.945-1.292-3.047-1.987-7-2.315l-5.65-.469zm-27 .124v4.5h5c3.607 0 5-.388 5-1.393 0-1.601-2.004-2.545-5.832-2.749-1.873-.1-1.48-.323 1.322-.75 2.699-.411 4.098-1.174 4.324-2.358.281-1.48-.449-1.75-4.741-1.75H203zm19.25.189c.963.252 2.537.252 3.5 0 .963-.251.175-.457-1.75-.457s-2.713.206-1.75.457m-72.677 16.647c-3.088 3.088-3.278 5.959-.573 8.664 4.155 4.155 13 1.525 13-3.866 0-3.939-1.963-6.091-6.18-6.776-3.064-.497-4.099-.169-6.247 1.978m17.423-1.836c-.037.55-.686 3.588-1.441 6.75-.756 3.162-1.014 5.75-.573 5.75s1.219-2.137 1.73-4.75l.927-4.75 2.38 4.75c1.309 2.613 2.65 4.75 2.981 4.75s1.65-2.137 2.931-4.75c2.026-4.132 2.433-4.49 3.129-2.75.439 1.1.831 3.238.87 4.75.038 1.512.569 2.75 1.178 2.75 1.115 0 .981-.991-1.283-9.5l-1.065-4-2.587 5.25c-1.423 2.887-2.853 5.25-3.179 5.25s-1.129-1.484-1.784-3.297c-1.325-3.663-4.109-7.761-4.214-6.203m18.193 6.25.189 6.75.361-5.75.361-5.75h4.843c3.55 0 5.01.434 5.467 1.627.927 2.416-1.096 4.212-5.236 4.649-3.656.386-3.653.389.597.556 3.716.146 4.427-.173 5.464-2.449 1.053-2.311.92-2.839-1.132-4.5-1.487-1.205-3.906-1.883-6.714-1.883H185zm20.555-4.607c-3.873 6.327-5.775 10.16-5.285 10.65.663.662.563.792 3.978-5.167 2.072-3.616 3.017-4.519 3.662-3.5 1.366 2.156 1.055 3.687-.849 4.185-1.091.285-.728.501.965.573 1.606.069 3.152.932 3.785 2.116.589 1.1 1.508 2 2.044 2 .853 0-4.131-10.076-6.113-12.357-.41-.471-1.394.204-2.187 1.5m11.459 4.357c.123 5.479.239 5.968.532 2.25.206-2.613.55-4.75.765-4.75s2.429 2.137 4.922 4.75l4.532 4.75-.157-7c-.123-5.479-.239-5.968-.532-2.25-.206 2.613-.55 4.75-.765 4.75s-2.429-2.137-4.922-4.75l-4.532-4.75zm14.824-5.944c-.015.58 1.098 2.58 2.473 4.444s2.5 4.426 2.5 5.694.502 2.306 1.117 2.306c.614 0 .889-.871.61-1.935-.278-1.065.05-2.752.73-3.75s2.026-3.165 2.991-4.815c1.67-2.856 1.603-2.832-1.399.5l-3.153 3.5-2.921-3.5c-1.607-1.925-2.933-3.025-2.948-2.444m-81.977 2.884c-.657.791-1.049 2.704-.872 4.25.304 2.653.595 2.81 5.213 2.81 5.863 0 7.682-1.849 5.826-5.922-.97-2.129-1.853-2.578-5.073-2.578-2.173 0-4.428.637-5.094 1.44M99.5 150.851c5.744 6.046 14.13 10.457 22.934 12.065 3.357.613 18.229 1.084 34.25 1.084H185v-7.559c0-4.785-.367-7.332-1-6.941-.55.34-1 3.066-1 6.059V161h-28.864c-15.874 0-31.254-.453-34.176-1.008-7.498-1.422-15.013-5.103-20.635-10.108l-4.825-4.295z"/></svg>